<?xml version="1.0" encoding="UTF-8" standalone="no"?>
<svg
   xmlns:dc="http://purl.org/dc/elements/1.1/"
   xmlns:cc="http://creativecommons.org/ns#"
   xmlns:rdf="http://www.w3.org/1999/02/22-rdf-syntax-ns#"
   xmlns:svg="http://www.w3.org/2000/svg"
   xmlns="http://www.w3.org/2000/svg"
   xmlns:sodipodi="http://sodipodi.sourceforge.net/DTD/sodipodi-0.dtd"
   xmlns:inkscape="http://www.inkscape.org/namespaces/inkscape"
   inkscape:version="0.92.4 (5da689c313, 2019-01-14)"
   sodipodi:docname="check.svg"
   id="svg4"
   version="1.1"
   viewBox="0 0 512 512"
   role="img"
   class="svg-inline--fa fa-check-circle fa-w-16"
   data-icon="check-circle"
   data-prefix="fas"
   focusable="false"
   aria-hidden="true">
  <metadata
     id="metadata10">
    <rdf:RDF>
      <cc:Work
         rdf:about="">
        <dc:format>image/svg+xml</dc:format>
        <dc:type
           rdf:resource="http://purl.org/dc/dcmitype/StillImage" />
      </cc:Work>
    </rdf:RDF>
  </metadata>
  <defs
     id="defs8" />
  <sodipodi:namedview
     inkscape:current-layer="svg4"
     inkscape:window-maximized="1"
     inkscape:window-y="-9"
     inkscape:window-x="-9"
     inkscape:cy="132.05999"
     inkscape:cx="137.25301"
     inkscape:zoom="1.6210938"
     showgrid="false"
     id="namedview6"
     inkscape:window-height="1001"
     inkscape:window-width="1920"
     inkscape:pageshadow="2"
     inkscape:pageopacity="0"
     guidetolerance="10"
     gridtolerance="10"
     objecttolerance="10"
     borderopacity="1"
     bordercolor="#666666"
     pagecolor="#ffffff" />
  <g
     transform="matrix(6.0191965,0,0,6.019191,8.829063,5.334524)"
     id="Layer1000">
    <path
       inkscape:connector-curvature="0"
       d="M 70.7353,12.2815 C 62.6907,4.2344 52.1451,0.2133 41.6008,0.2133 c -10.5443,0 -21.0886,4.0211 -29.1345,12.0682 -16.0894,16.0893 -16.0894,42.1773 0,58.2667 8.0459,8.0448 18.5902,12.0682 29.1345,12.0682 10.5443,0 21.0899,-4.0234 29.1345,-12.0682 16.0893,-16.0894 16.0893,-42.1774 0,-58.2667 z"
       style="fill:#1db30f;fill-rule:evenodd"
       id="path2" />
    <path
       inkscape:connector-curvature="0"
       d="M 35.2417,47.3853 24.1383,36.2818 14.0098,46.4103 35.2417,67.6426 35.244,67.6403 45.3705,57.5138 70.2277,32.6564 60.0992,22.5279 Z"
       style="fill:#ffffff;fill-rule:evenodd"
       id="path4" />
  </g>
</svg>
